<svg height="512pt" viewBox="0 0 512 512" width="512pt" xmlns="http://www.w3.org/2000/svg" xmlns:xlink="http://www.w3.org/1999/xlink"><linearGradient id="a" gradientUnits="userSpaceOnUse" x1="0" x2="512" y1="256" y2="256"><stop offset="0" stop-color="#ffa99b"/><stop offset="1" stop-color="#f85b3f"/></linearGradient><linearGradient id="b"><stop offset="0" stop-color="#fdefb2"/><stop offset="1" stop-color="#fbdf65"/></linearGradient><linearGradient id="c" gradientUnits="userSpaceOnUse" x1="80" x2="428.1095" xlink:href="#b" y1="317.2622" y2="317.2622"/><linearGradient id="d" gradientUnits="userSpaceOnUse" x1="80" x2="428.1095" xlink:href="#b" y1="194.7378" y2="194.7378"/><linearGradient id="e"><stop offset="0" stop-color="#2b5c74"/><stop offset="1" stop-color="#203f49"/></linearGradient><linearGradient id="f" gradientUnits="userSpaceOnUse" x1="87" x2="411.1685" xlink:href="#e" y1="317.2622" y2="317.2622"/><linearGradient id="g"><stop offset="0" stop-color="#b6b8b5"/><stop offset="1" stop-color="#5c6f74"/></linearGradient><linearGradient id="h" gradientUnits="userSpaceOnUse" x1="164.1067" x2="348.2318" xlink:href="#g" y1="378.5244" y2="378.5244"/><linearGradient id="i" gradientUnits="userSpaceOnUse" x1="164.1067" x2="348.2318" xlink:href="#g" y1="256" y2="256"/><linearGradient id="j" gradientUnits="userSpaceOnUse" x1="164.1067" x2="348.2318" xlink:href="#g" y1="133.4756" y2="133.4756"/><linearGradient id="k" gradientUnits="userSpaceOnUse" x1="87" x2="411.1685" xlink:href="#e" y1="194.7378" y2="194.7378"/><path d="m512 256c0 141.386719-114.613281 256-256 256s-256-114.613281-256-256 114.613281-256 256-256 256 114.613281 256 256zm0 0" fill="url(#a)"/><path d="m174.261719 388.679688h-71.078125v-142.832032h71.246094v20.304688h-50.9375v102.21875h50.769531zm0 0" fill="url(#c)"/><path d="m408.816406 266.152344h-71.246094v-20.304688h50.9375v-102.21875h-50.769531v-20.308594h71.078125zm0 0" fill="url(#d)"/><path d="m143.800781 317.261719c0 16.824219-13.640625 30.460937-30.464843 30.460937-16.824219 0-30.460938-13.636718-30.460938-30.460937s13.636719-30.460938 30.460938-30.460938c16.824218 0 30.464843 13.636719 30.464843 30.460938zm0 0" fill="url(#f)"/><path d="m256 327.753906h-91.894531v101.539063h184.125v-101.539063zm0 0" fill="url(#h)"/><path d="m246.015625 368.371094h20.308594v20.308594h-20.308594zm0 0" fill="#e7e7e6"/><path d="m205.398438 368.371094h20.308593v20.308594h-20.308593zm0 0" fill="#fff"/><path d="m286.632812 368.371094h20.304688v20.308594h-20.304688zm0 0" fill="#e7e7e6"/><path d="m256 205.230469h-91.894531v101.539062h184.125v-101.539062zm0 0" fill="url(#i)"/><path d="m246.015625 245.847656h20.308594v20.304688h-20.308594zm0 0" fill="#e7e7e6"/><path d="m205.398438 245.847656h20.308593v20.304688h-20.308593zm0 0" fill="#fff"/><path d="m286.632812 245.847656h20.304688v20.304688h-20.304688zm0 0" fill="#e7e7e6"/><path d="m256 82.707031h-91.894531v101.539063h184.125v-101.539063zm0 0" fill="url(#j)"/><path d="m246.015625 123.320312h20.308594v20.308594h-20.308594zm0 0" fill="#e7e7e6"/><path d="m205.398438 123.320312h20.308593v20.308594h-20.308593zm0 0" fill="#fff"/><path d="m286.632812 123.320312h20.304688v20.308594h-20.304688zm0 0" fill="#e7e7e6"/><path d="m429.125 194.738281c0 16.824219-13.636719 30.460938-30.460938 30.460938-16.824218 0-30.464843-13.636719-30.464843-30.460938s13.640625-30.460937 30.464843-30.460937c16.824219 0 30.460938 13.636718 30.460938 30.460937zm0 0" fill="url(#k)"/></svg>